# File created by Blade
# Date/Time:  Wed Sep 24 19:42:34 2014
# Frame Rate: 120.000 fps
#------------------------------------------------------
:FULLY-SPECIFIED
:DEGREES
2726
root -4.632509 33.066237 -3.653166 7.663525 -3.732108 -2.442895
Spine -13.041151 11.574599 -7.887026
Head 11.119795 -16.984359 18.748713
LeftShoulder -17.130899 23.132490 7.335948
LeftArm 24.563004 38.351631 -69.632237
LeftForeArm 10.301192 -0.000000 25.028184
LeftHand -26.409754 -0.000000 -3.188663
LeftHandThumb1 -26.253704 0.000000 33.147579
RightShoulder 338.356784 6.597614 317.440214
RightArm 50.743550 30.980363 10.719155
RightForeArm -24.458260 -0.000000 81.487021
RightHand -7.948741 -0.000000 46.525256
RightHandThumb1 -24.326973 -0.000000 -32.862282
LeftUpLeg -1.424172 7.912491 5.624088
LeftLeg -1.639971 -0.000000 0.000000
LeftFoot -9.201825 7.175028 -19.776137
LeftToeBase 10.566249 -0.000000 -0.000000
RightUpLeg -5.391152 -4.924645 0.129954
RightLeg 2.219969 -0.000000 -0.000000
RightFoot -5.657572 -1.903143 -16.042323
RightToeBase 0.034769 -0.000000 -0.000000
2727
root -4.627047 33.067319 -3.652938 7.660368 -3.693332 -2.396562
Spine -13.050931 11.560304 -7.862705
Head 11.116843 -16.948303 18.760905
LeftShoulder -17.110835 23.140800 7.348947
LeftArm 24.792463 38.445619 -69.629999
LeftForeArm 10.434928 0.000000 24.834356
LeftHand -26.711789 -0.000000 -2.737903
LeftHandThumb1 -26.253704 0.000000 33.147579
RightShoulder 338.351100 6.485011 317.541630
RightArm 50.873087 31.132554 10.800006
RightForeArm -24.488949 -0.000000 81.501153
RightHand -7.924680 -0.000000 46.541473
RightHandThumb1 -24.326973 -0.000000 -32.862282
LeftUpLeg -1.407310 7.757875 5.570611
LeftLeg -1.691425 -0.000000 0.000000
LeftFoot -9.182998 7.313063 -19.778914
LeftToeBase 10.522227 -0.000000 -0.000000
RightUpLeg -5.390666 -4.946702 0.077209
RightLeg 2.228777 -0.000000 -0.000000
RightFoot -5.673491 -1.922544 -16.034248
RightToeBase 0.049429 -0.000000 -0.000000
2728
root -4.625646 33.067733 -3.652710 7.657652 -3.649327 -2.376769
Spine -13.054583 11.541539 -7.806063
Head 11.098065 -16.913077 18.771598
LeftShoulder -17.084717 23.115084 7.364265
LeftArm 24.885078 38.409526 -69.709000
LeftForeArm 10.578073 -0.000000 24.681928
LeftHand -26.872066 0.000000 -2.289466
LeftHandThumb1 -26.253704 0.000000 33.147579
RightShoulder 338.354397 6.445249 317.586139
RightArm 50.955156 31.209196 10.888375
RightForeArm -24.499237 -0.000000 81.551723
RightHand -7.922643 -0.000000 46.523148
RightHandThumb1 -24.326973 -0.000000 -32.862282
LeftUpLeg -1.412566 7.709160 5.554091
LeftLeg -1.697194 -0.000000 0.000000
LeftFoot -9.174064 7.323949 -19.747888
LeftToeBase 10.548176 -0.000000 -0.000000
RightUpLeg -5.383389 -4.957118 0.057609
RightLeg 2.226420 -0.000000 -0.000000
RightFoot -5.666132 -1.953257 -16.014590
RightToeBase 0.034457 -0.000000 -0.000000
2729
root -4.623187 33.067649 -3.651425 7.646125 -3.619926 -2.354759
Spine -13.049417 11.542114 -7.743297
Head 11.075342 -16.891388 18.753946
LeftShoulder -17.099324 23.101622 7.338499
LeftArm 25.024551 38.338467 -69.712084
LeftForeArm 10.614834 -0.000000 24.502775
LeftHand -26.793142 0.000000 -2.004425
LeftHandThumb1 -26.253704 0.000000 33.147579
RightShoulder 338.366540 6.358694 317.679948
RightArm 51.030884 31.375515 10.878600
RightForeArm -24.433948 -0.000000 81.585181
RightHand -7.937547 -0.000000 46.557834
RightHandThumb1 -24.326973 -0.000000 -32.862282
LeftUpLeg -1.409806 7.693716 5.531687
LeftLeg -1.690239 -0.000000 0.000000
LeftFoot -9.164778 7.314231 -19.751129
LeftToeBase 10.558547 -0.000000 -0.000000
RightUpLeg -5.374269 -4.952535 0.032156
RightLeg 2.241662 -0.000000 -0.000000
RightFoot -5.675983 -2.002527 -16.058945
RightToeBase 0.059747 -0.000000 -0.000000
2730
root -4.622227 33.067839 -3.650502 7.638800 -3.574129 -2.338148
Spine -13.046319 11.531204 -7.686218
Head 11.057763 -16.887819 18.773802
LeftShoulder -17.018381 22.991792 7.381992
LeftArm 24.886193 38.119626 -69.924546
LeftForeArm 10.559226 -0.000000 24.381045
LeftHand -26.751915 -0.000000 -2.013261
LeftHandThumb1 -26.253704 0.000000 33.147579
RightShoulder 338.361045 6.288863 317.748001
RightArm 51.115164 31.497145 10.929675
RightForeArm -24.411272 -0.000000 81.637853
RightHand -7.948495 0.000000 46.573773
RightHandThumb1 -24.326973 -0.000000 -32.862282
LeftUpLeg -1.416402 7.674606 5.519493
LeftLeg -1.681358 -0.000000 0.000000
LeftFoot -9.150823 7.277456 -19.762598
LeftToeBase 10.532496 -0.000000 -0.000000
RightUpLeg -5.361725 -4.956798 0.014963
RightLeg 2.242571 -0.000000 -0.000000
RightFoot -5.677758 -2.039798 -16.052384
RightToeBase 0.066390 -0.000000 -0.000000
2731
root -4.621405 33.067789 -3.649127 7.628260 -3.540372 -2.317700
Spine -13.042287 11.536590 -7.630744
Head 11.049265 -16.889719 18.764976
LeftShoulder -17.001418 22.928633 7.375110
LeftArm 24.882150 37.951479 -69.965218
LeftForeArm 10.278504 -0.000000 24.275179
LeftHand -26.684227 0.000000 -2.017450
LeftHandThumb1 -26.253704 0.000000 33.147579
RightShoulder 338.347399 6.235782 317.771862
RightArm 51.224282 31.579342 11.062236
RightForeArm -24.463935 0.000000 81.705491
RightHand -7.951703 -0.000000 46.624896
RightHandThumb1 -24.326973 -0.000000 -32.862282
LeftUpLeg -1.412213 7.659771 5.504796
LeftLeg -1.680440 -0.000000 0.000000
LeftFoot -9.131714 7.236347 -19.804715
LeftToeBase 10.526859 -0.000000 -0.000000
RightUpLeg -5.348333 -4.957758 -0.007388
RightLeg 2.248383 -0.000000 -0.000000
RightFoot -5.685147 -2.075303 -16.010985
RightToeBase 0.047796 -0.000000 -0.000000
2732
root -4.620992 33.067748 -3.648248 7.624160 -3.501893 -2.303291
Spine -13.043397 11.518354 -7.574433
Head 11.034524 -16.866372 18.788422
LeftShoulder -16.986998 22.825803 7.386826
LeftArm 24.795215 37.777741 -70.030113
LeftForeArm 9.934624 -0.000000 24.219256
LeftHand -26.522998 -0.000000 -2.191547
LeftHandThumb1 -26.253704 0.000000 33.147579
RightShoulder 338.357855 6.280624 317.802074
RightArm 51.276323 31.593402 11.101487
RightForeArm -24.441261 -0.000000 81.768655
RightHand -7.964326 -0.000000 46.647582
RightHandThumb1 -24.326973 -0.000000 -32.862282
LeftUpLeg -1.417507 7.645070 5.495807
LeftLeg -1.677473 -0.000000 0.000000
LeftFoot -9.115011 7.206770 -19.787293
LeftToeBase 10.562951 -0.000000 -0.000000
RightUpLeg -5.340624 -4.961466 -0.021980
RightLeg 2.252120 -0.000000 -0.000000
RightFoot -5.694750 -2.105482 -15.999846
RightToeBase 0.064049 -0.000000 -0.000000
2733
root -4.620891 33.068072 -3.647057 7.614177 -3.467760 -2.288076
Spine -13.042682 11.503478 -7.526441
Head 11.042051 -16.841577 18.836464
LeftShoulder -16.925071 22.761330 7.405326
LeftArm 24.661151 37.500876 -70.126154
LeftForeArm 9.569111 0.000000 24.237643
LeftHand -26.286941 -0.000000 -2.659816
LeftHandThumb1 -26.253704 0.000000 33.147579
RightShoulder 338.367380 6.276507 317.836692
RightArm 51.338524 31.635104 11.167294
RightForeArm -24.465253 -0.000000 81.831291
RightHand -7.977129 -0.000000 46.657339
RightHandThumb1 -24.326973 -0.000000 -32.862282
LeftUpLeg -1.418275 7.643210 5.486037
LeftLeg -1.667902 -0.000000 0.000000
LeftFoot -9.087171 7.169757 -19.760282
LeftToeBase 10.545068 -0.000000 -0.000000
RightUpLeg -5.327375 -4.955966 -0.038756
RightLeg 2.256259 -0.000000 -0.000000
RightFoot -5.690669 -2.134117 -15.971371
RightToeBase 0.052639 -0.000000 -0.000000
2734
root -4.623437 33.066661 -3.645446 7.603124 -3.420706 -2.305884
Spine -13.039695 11.491002 -7.427293
Head 11.046675 -16.834634 18.820104
LeftShoulder -16.896217 22.754889 7.394548
LeftArm 24.642094 37.239079 -70.132322
LeftForeArm 9.124078 -0.000000 24.256788
LeftHand -26.104637 -0.000000 -3.225208
LeftHandThumb1 -26.253704 0.000000 33.147579
RightShoulder 338.389335 6.259313 317.853654
RightArm 51.384121 31.691205 11.226204
RightForeArm -24.462196 -0.000000 81.891976
RightHand -7.995974 -0.000000 46.677007
RightHandThumb1 -24.326973 -0.000000 -32.862282
LeftUpLeg -1.435188 7.756377 5.512480
LeftLeg -1.621315 -0.000000 0.000000
LeftFoot -9.071849 6.993263 -19.756411
LeftToeBase 10.503075 -0.000000 -0.000000
RightUpLeg -5.301238 -4.970123 -0.013629
RightLeg 2.246853 -0.000000 -0.000000
RightFoot -5.695977 -2.177739 -15.992306
RightToeBase 0.097241 -0.000000 -0.000000
2735
root -4.624140 33.066458 -3.643901 7.594123 -3.389891 -2.294277
Spine -13.049088 11.492404 -7.376188
Head 11.075420 -16.843470 18.822162
LeftShoulder -16.861617 22.748031 7.395689
LeftArm 24.631171 37.006946 -70.097674
LeftForeArm 8.566104 -0.000000 24.305022
LeftHand -25.989478 -0.000000 -3.149662
LeftHandThumb1 -26.253704 0.000000 33.147579
RightShoulder 338.410076 6.202975 317.884717
RightArm 51.433449 31.764283 11.303719
RightForeArm -24.489305 0.000000 81.947955
RightHand -7.968403 -0.000000 46.634419
RightHandThumb1 -24.326973 -0.000000 -32.862282
LeftUpLeg -1.431740 7.792870 5.505961
LeftLeg -1.621512 -0.000000 0.000000
LeftFoot -9.039727 6.928960 -19.751430
LeftToeBase 10.523295 -0.000000 -0.000000
RightUpLeg -5.286655 -4.973957 -0.022361
RightLeg 2.247515 -0.000000 -0.000000
RightFoot -5.699804 -2.198161 -15.998253
RightToeBase 0.082811 -0.000000 -0.000000
